<svg width="80" height="78" viewBox="0 0 80 78" fill="none" xmlns="http://www.w3.org/2000/svg">
<path d="M54.9478 14.2989C58.6374 14.2989 61.6284 11.098 61.6284 7.14947C61.6284 3.20093 58.6374 0 54.9478 0C51.2582 0 48.2672 3.20093 48.2672 7.14947C48.2672 11.098 51.2582 14.2989 54.9478 14.2989Z" fill="#1EF7CE"/>
<path d="M80 41.1093V24.308L63.1315 16.6581C59.8915 15.1924 56.1503 16.4436 54.2798 19.6608L50.9395 25.3804C48.7015 29.5986 44.5595 32.7444 39.5491 33.6738L39.7495 33.8883C42.0543 36.3549 44.8267 37.7133 47.9666 38.0707C50.6388 36.5694 53.0439 34.5675 54.9478 32.2082L56.952 42.9324L53.0773 46.8646L49.9374 50.0461V52.7629V76.8566H56.618V55.4082L63.6326 48.2587L69.6451 76.8566H76.6597L69.3779 37.5345L67.3069 26.4529L73.3194 28.9552V41.1093H80Z" fill="#1EF7CE"/>
<path d="M34.2046 27.5611C34.9394 28.0973 35.7745 28.419 36.6096 28.5978C37.0438 28.6693 37.4447 28.7408 37.8789 28.7408C38.3131 28.7408 38.7474 28.705 39.1482 28.5978C39.5825 28.5263 39.9833 28.3833 40.3841 28.2046C41.1858 27.8471 41.9541 27.3466 42.5887 26.6317C44.2255 24.88 44.8267 22.4492 44.4259 20.1971C44.1921 18.8745 43.5908 17.5518 42.5887 16.5152C41.9541 15.836 41.1858 15.2998 40.3841 14.9423C39.9833 14.7635 39.5825 14.6206 39.1482 14.5491C38.714 14.4776 38.3131 14.4061 37.8789 14.4061C37.4781 14.4061 37.1106 14.4418 36.7098 14.5133C36.2422 14.5848 35.7745 14.7278 35.3403 14.9065C34.572 15.2998 33.8037 15.836 33.1691 16.5152C32.167 17.5518 31.5657 18.8745 31.3319 20.1971C30.9311 22.4492 31.5323 24.88 33.1691 26.6317C33.4697 26.9891 33.8371 27.2751 34.2046 27.5611Z" fill="#1EF7CE"/>
<path d="M37.3779 36.3907L30.6973 29.2413C30.3633 28.8838 30.0292 28.5978 29.6618 28.3118C28.9269 27.8114 28.0919 27.4539 27.2568 27.3109C26.8225 27.2037 26.4217 27.1679 25.9875 27.1679C24.2839 27.1679 22.5804 27.8829 21.2777 29.277L10.1211 41.2166C8.75157 42.6823 8.0501 44.7199 8.18372 46.7217C8.18372 47.3652 8.31733 48.0444 8.55115 48.6878L12.1253 59.2333L0 72.2096L4.70981 77.2857L18.8727 62.1288V54.1929L23.215 58.5184V76.8568H29.8956V55.4083L22.8142 47.8299L30.6973 39.3935L33.0689 41.9316C37.3779 46.4357 42.9896 49.224 49.8706 49.224L49.4029 41.8243C44.3925 41.7528 40.3841 39.608 37.3779 36.3907Z" fill="#1EF7CE"/>
</svg>
