<svg width="30" height="26" viewBox="0 0 30 26" fill="none" xmlns="http://www.w3.org/2000/svg">
<path d="M0.833322 4.5C0.833322 3.31944 1.24652 2.31597 2.07291 1.48958C2.8993 0.663193 3.90277 0.249999 5.08332 0.249999L24.9167 0.25C26.0972 0.25 27.1007 0.663194 27.9271 1.48958C28.7535 2.31597 29.1667 3.31944 29.1667 4.5L29.1667 20.0833L6.49999 20.0833L6.49999 4.5C6.49999 4.09861 6.36423 3.76215 6.0927 3.49062C5.82117 3.2191 5.48471 3.08333 5.08332 3.08333C4.68193 3.08333 4.34548 3.2191 4.07395 3.49062C3.80242 3.76215 3.66666 4.09861 3.66666 4.5L3.66666 22.9167L26.3333 22.9167L26.3333 25.75L0.833321 25.75L0.833322 4.5ZM9.33332 8.75L9.33332 17.25L26.3333 17.25L26.3333 8.75L9.33332 8.75ZM9.33332 5.91667L26.3333 5.91667L26.3333 4.5C26.3333 4.09861 26.1976 3.76215 25.926 3.49062C25.6545 3.2191 25.318 3.08333 24.9167 3.08333L9.08541 3.08333C9.15624 3.31944 9.21527 3.54965 9.26249 3.77396C9.30971 3.99826 9.33332 4.24028 9.33332 4.5L9.33332 5.91667Z" fill="#202020"/>
</svg>
